<?xml version="1.0" encoding="utf-8"?>
<!-- Svg Vector Icons : http://www.onlinewebfonts.com/icon -->
<!DOCTYPE svg PUBLIC "-//W3C//DTD SVG 1.1//EN" "http://www.w3.org/Graphics/SVG/1.1/DTD/svg11.dtd">
<svg version="1.1" xmlns="http://www.w3.org/2000/svg" xmlns:xlink="http://www.w3.org/1999/xlink" x="0px" y="0px" viewBox="0 0 256 256" enable-background="new 0 0 256 256" xml:space="preserve">
<metadata> Svg Vector Icons : http://www.onlinewebfonts.com/icon </metadata>
<g><g><path fill="#000000" d="M128,246c-65.2,0-118-52.8-118-118C10,62.8,62.8,10,128,10c65.2,0,118,52.8,118,118C246,193.2,193.2,246,128,246z M128,32.1C75,32.1,32.1,75,32.1,128c0,53,42.9,95.9,95.9,95.9c53,0,95.9-42.9,95.9-95.9C223.9,75,181,32.1,128,32.1z M102.4,88.8c0-4.7,3.8-8.4,8.5-8.4c1.6,0,3,0.6,4.3,1.3l55.5,42.5c1.9,1.5,3.2,3.8,3.2,6.4c0,2.9-1.6,5.4-3.9,6.9l-55.3,42.2c-1.2,0.6-2.4,1-3.9,1c-4.6,0-8.2-3.6-8.4-8.2L102.4,88.8z"/></g></g>
</svg>